<?xml version="1.0" encoding="UTF-8"?>
<svg xmlns="http://www.w3.org/2000/svg" viewBox="0 0 1800 1400" width="1800" height="1400">
  <defs>
    <style>
      .entity { fill: #e3f2fd; stroke: #1976d2; stroke-width: 2; }
      .entity-header { fill: #1976d2; }
      .entity-title { fill: white; font-family: Arial, sans-serif; font-size: 14px; font-weight: bold; }
      .attr { fill: #333; font-family: Arial, sans-serif; font-size: 11px; }
      .pk { fill: #d32f2f; font-family: Arial, sans-serif; font-size: 11px; font-weight: bold; }
      .fk { fill: #1565c0; font-family: Arial, sans-serif; font-size: 11px; }
      .relation { stroke: #666; stroke-width: 1.5; fill: none; }
      .relation-label { fill: #666; font-family: Arial, sans-serif; font-size: 10px; }
      .title { fill: #1976d2; font-family: Arial, sans-serif; font-size: 24px; font-weight: bold; }
      .subtitle { fill: #666; font-family: Arial, sans-serif; font-size: 14px; }
    </style>
    <marker id="arrow" markerWidth="10" markerHeight="10" refX="9" refY="3" orient="auto" markerUnits="strokeWidth">
      <path d="M0,0 L0,6 L9,3 z" fill="#666"/>
    </marker>
    <marker id="one" markerWidth="10" markerHeight="10" refX="0" refY="5" orient="auto">
      <line x1="0" y1="0" x2="0" y2="10" stroke="#666" stroke-width="2"/>
    </marker>
    <marker id="many" markerWidth="15" markerHeight="10" refX="0" refY="5" orient="auto">
      <path d="M0,5 L10,0 M0,5 L10,10 M0,5 L10,5" stroke="#666" stroke-width="1.5" fill="none"/>
    </marker>
  </defs>
  
  <!-- Title -->
  <text x="900" y="40" text-anchor="middle" class="title">SƠ ĐỒ ERD - HỆ THỐNG KẾT NỐI SINH VIÊN Y KHOA VÀ BỆNH NHÂN</text>
  <text x="900" y="65" text-anchor="middle" class="subtitle">Entity Relationship Diagram - Medical Student Connection Platform</text>

  <!-- ==================== USERS (Central Entity) ==================== -->
  <g transform="translate(750, 100)">
    <rect class="entity" x="0" y="0" width="200" height="340" rx="5"/>
    <rect class="entity-header" x="0" y="0" width="200" height="30" rx="5"/>
    <rect class="entity-header" x="0" y="20" width="200" height="10"/>
    <text x="100" y="20" text-anchor="middle" class="entity-title">USERS</text>
    <text x="10" y="50" class="pk">🔑 id (PK)</text>
    <text x="10" y="70" class="attr">name</text>
    <text x="10" y="90" class="attr">full_name</text>
    <text x="10" y="110" class="attr">username (UNIQUE)</text>
    <text x="10" y="130" class="attr">email (UNIQUE)</text>
    <text x="10" y="150" class="attr">email_verified</text>
    <text x="10" y="170" class="attr">facebook_id</text>
    <text x="10" y="190" class="attr">password</text>
    <text x="10" y="210" class="attr">role (patient/student/admin)</text>
    <text x="10" y="230" class="attr">bio, location, phone</text>
    <text x="10" y="250" class="attr">avatar</text>
    <text x="10" y="270" class="attr">school, class_code, student_id</text>
    <text x="10" y="290" class="attr">verified, is_admin, can_post</text>
    <text x="10" y="310" class="attr">show_phone, show_email</text>
    <text x="10" y="330" class="attr">last_login, created_at</text>
  </g>

  <!-- ==================== POSTS ==================== -->
  <g transform="translate(50, 100)">
    <rect class="entity" x="0" y="0" width="180" height="200" rx="5"/>
    <rect class="entity-header" x="0" y="0" width="180" height="30" rx="5"/>
    <rect class="entity-header" x="0" y="20" width="180" height="10"/>
    <text x="90" y="20" text-anchor="middle" class="entity-title">POSTS</text>
    <text x="10" y="50" class="pk">🔑 id (PK)</text>
    <text x="10" y="70" class="fk">🔗 user_id (FK)</text>
    <text x="10" y="90" class="attr">title</text>
    <text x="10" y="110" class="attr">content</text>
    <text x="10" y="130" class="attr">type (recruitment/application)</text>
    <text x="10" y="150" class="attr">category</text>
    <text x="10" y="170" class="attr">area</text>
    <text x="10" y="190" class="attr">status, created_at</text>
  </g>

  <!-- ==================== COMMENTS ==================== -->
  <g transform="translate(50, 350)">
    <rect class="entity" x="0" y="0" width="180" height="140" rx="5"/>
    <rect class="entity-header" x="0" y="0" width="180" height="30" rx="5"/>
    <rect class="entity-header" x="0" y="20" width="180" height="10"/>
    <text x="90" y="20" text-anchor="middle" class="entity-title">COMMENTS</text>
    <text x="10" y="50" class="pk">🔑 id (PK)</text>
    <text x="10" y="70" class="fk">🔗 post_id (FK)</text>
    <text x="10" y="90" class="fk">🔗 user_id (FK)</text>
    <text x="10" y="110" class="attr">content</text>
    <text x="10" y="130" class="attr">created_at</text>
  </g>

  <!-- ==================== FAVORITES ==================== -->
  <g transform="translate(50, 540)">
    <rect class="entity" x="0" y="0" width="180" height="120" rx="5"/>
    <rect class="entity-header" x="0" y="0" width="180" height="30" rx="5"/>
    <rect class="entity-header" x="0" y="20" width="180" height="10"/>
    <text x="90" y="20" text-anchor="middle" class="entity-title">FAVORITES</text>
    <text x="10" y="50" class="pk">🔑 id (PK)</text>
    <text x="10" y="70" class="fk">🔗 user_id (FK)</text>
    <text x="10" y="90" class="fk">🔗 post_id (FK)</text>
    <text x="10" y="110" class="attr">created_at</text>
  </g>

  <!-- ==================== FRIENDSHIPS ==================== -->
  <g transform="translate(1050, 100)">
    <rect class="entity" x="0" y="0" width="180" height="140" rx="5"/>
    <rect class="entity-header" x="0" y="0" width="180" height="30" rx="5"/>
    <rect class="entity-header" x="0" y="20" width="180" height="10"/>
    <text x="90" y="20" text-anchor="middle" class="entity-title">FRIENDSHIPS</text>
    <text x="10" y="50" class="pk">🔑 id (PK)</text>
    <text x="10" y="70" class="fk">🔗 user_id (FK)</text>
    <text x="10" y="90" class="fk">🔗 friend_id (FK)</text>
    <text x="10" y="110" class="attr">status (pending/accepted/blocked)</text>
    <text x="10" y="130" class="attr">created_at, accepted_at</text>
  </g>

  <!-- ==================== DIRECT_MESSAGES ==================== -->
  <g transform="translate(1300, 100)">
    <rect class="entity" x="0" y="0" width="180" height="140" rx="5"/>
    <rect class="entity-header" x="0" y="0" width="180" height="30" rx="5"/>
    <rect class="entity-header" x="0" y="20" width="180" height="10"/>
    <text x="90" y="20" text-anchor="middle" class="entity-title">DIRECT_MESSAGES</text>
    <text x="10" y="50" class="pk">🔑 id (PK)</text>
    <text x="10" y="70" class="fk">🔗 sender_id (FK)</text>
    <text x="10" y="90" class="fk">🔗 receiver_id (FK)</text>
    <text x="10" y="110" class="attr">message</text>
    <text x="10" y="130" class="attr">is_read, created_at</text>
  </g>

  <!-- ==================== CONVERSATIONS ==================== -->
  <g transform="translate(1300, 280)">
    <rect class="entity" x="0" y="0" width="180" height="140" rx="5"/>
    <rect class="entity-header" x="0" y="0" width="180" height="30" rx="5"/>
    <rect class="entity-header" x="0" y="20" width="180" height="10"/>
    <text x="90" y="20" text-anchor="middle" class="entity-title">CONVERSATIONS</text>
    <text x="10" y="50" class="pk">🔑 id (PK)</text>
    <text x="10" y="70" class="fk">🔗 user1_id (FK)</text>
    <text x="10" y="90" class="fk">🔗 user2_id (FK)</text>
    <text x="10" y="110" class="attr">last_message_id</text>
    <text x="10" y="130" class="attr">created_at, updated_at</text>
  </g>

  <!-- ==================== MESSAGES ==================== -->
  <g transform="translate(1050, 280)">
    <rect class="entity" x="0" y="0" width="180" height="160" rx="5"/>
    <rect class="entity-header" x="0" y="0" width="180" height="30" rx="5"/>
    <rect class="entity-header" x="0" y="20" width="180" height="10"/>
    <text x="90" y="20" text-anchor="middle" class="entity-title">MESSAGES</text>
    <text x="10" y="50" class="pk">🔑 id (PK)</text>
    <text x="10" y="70" class="fk">🔗 sender_id (FK)</text>
    <text x="10" y="90" class="fk">🔗 receiver_id (FK)</text>
    <text x="10" y="110" class="attr">subject</text>
    <text x="10" y="130" class="attr">message</text>
    <text x="10" y="150" class="attr">is_read, created_at</text>
  </g>

  <!-- ==================== APPOINTMENTS ==================== -->
  <g transform="translate(1050, 480)">
    <rect class="entity" x="0" y="0" width="200" height="180" rx="5"/>
    <rect class="entity-header" x="0" y="0" width="200" height="30" rx="5"/>
    <rect class="entity-header" x="0" y="20" width="200" height="10"/>
    <text x="100" y="20" text-anchor="middle" class="entity-title">APPOINTMENTS</text>
    <text x="10" y="50" class="pk">🔑 id (PK)</text>
    <text x="10" y="70" class="fk">🔗 patient_id (FK → users)</text>
    <text x="10" y="90" class="fk">🔗 student_id (FK → users)</text>
    <text x="10" y="110" class="attr">appointment_date</text>
    <text x="10" y="130" class="attr">status (pending/confirmed/...)</text>
    <text x="10" y="150" class="attr">notes</text>
    <text x="10" y="170" class="attr">created_at, updated_at</text>
  </g>

  <!-- ==================== RATINGS ==================== -->
  <g transform="translate(1300, 480)">
    <rect class="entity" x="0" y="0" width="180" height="140" rx="5"/>
    <rect class="entity-header" x="0" y="0" width="180" height="30" rx="5"/>
    <rect class="entity-header" x="0" y="20" width="180" height="10"/>
    <text x="90" y="20" text-anchor="middle" class="entity-title">RATINGS</text>
    <text x="10" y="50" class="pk">🔑 id (PK)</text>
    <text x="10" y="70" class="fk">🔗 user_id (FK)</text>
    <text x="10" y="90" class="fk">🔗 rated_user_id (FK)</text>
    <text x="10" y="110" class="attr">rating (1-5)</text>
    <text x="10" y="130" class="attr">comment, created_at</text>
  </g>

  <!-- ==================== REPORTS ==================== -->
  <g transform="translate(280, 350)">
    <rect class="entity" x="0" y="0" width="200" height="180" rx="5"/>
    <rect class="entity-header" x="0" y="0" width="200" height="30" rx="5"/>
    <rect class="entity-header" x="0" y="20" width="200" height="10"/>
    <text x="100" y="20" text-anchor="middle" class="entity-title">REPORTS</text>
    <text x="10" y="50" class="pk">🔑 id (PK)</text>
    <text x="10" y="70" class="fk">🔗 reporter_id (FK)</text>
    <text x="10" y="90" class="fk">🔗 reported_user_id (FK)</text>
    <text x="10" y="110" class="fk">🔗 post_id (FK)</text>
    <text x="10" y="130" class="attr">reason, description</text>
    <text x="10" y="150" class="attr">status (pending/reviewed/resolved)</text>
    <text x="10" y="170" class="attr">admin_notes, created_at</text>
  </g>

  <!-- ==================== VERIFICATIONS ==================== -->
  <g transform="translate(530, 480)">
    <rect class="entity" x="0" y="0" width="200" height="160" rx="5"/>
    <rect class="entity-header" x="0" y="0" width="200" height="30" rx="5"/>
    <rect class="entity-header" x="0" y="20" width="200" height="10"/>
    <text x="100" y="20" text-anchor="middle" class="entity-title">VERIFICATIONS</text>
    <text x="10" y="50" class="pk">🔑 id (PK)</text>
    <text x="10" y="70" class="fk">🔗 user_id (FK)</text>
    <text x="10" y="90" class="attr">document_type</text>
    <text x="10" y="110" class="attr">document_path</text>
    <text x="10" y="130" class="attr">status (pending/approved/rejected)</text>
    <text x="10" y="150" class="attr">admin_notes, processed_at</text>
  </g>

  <!-- ==================== POSTING_REQUESTS ==================== -->
  <g transform="translate(280, 580)">
    <rect class="entity" x="0" y="0" width="200" height="200" rx="5"/>
    <rect class="entity-header" x="0" y="0" width="200" height="30" rx="5"/>
    <rect class="entity-header" x="0" y="20" width="200" height="10"/>
    <text x="100" y="20" text-anchor="middle" class="entity-title">POSTING_REQUESTS</text>
    <text x="10" y="50" class="pk">🔑 id (PK)</text>
    <text x="10" y="70" class="fk">🔗 user_id (FK)</text>
    <text x="10" y="90" class="attr">full_name</text>
    <text x="10" y="110" class="attr">student_code</text>
    <text x="10" y="130" class="attr">class_name, address</text>
    <text x="10" y="150" class="attr">document_card</text>
    <text x="10" y="170" class="attr">document_internship</text>
    <text x="10" y="190" class="attr">status, admin_note</text>
  </g>

  <!-- ==================== ACCOUNT_REQUESTS ==================== -->
  <g transform="translate(50, 710)">
    <rect class="entity" x="0" y="0" width="180" height="140" rx="5"/>
    <rect class="entity-header" x="0" y="0" width="180" height="30" rx="5"/>
    <rect class="entity-header" x="0" y="20" width="180" height="10"/>
    <text x="90" y="20" text-anchor="middle" class="entity-title">ACCOUNT_REQUESTS</text>
    <text x="10" y="50" class="pk">🔑 id (PK)</text>
    <text x="10" y="70" class="fk">🔗 user_id (FK)</text>
    <text x="10" y="90" class="attr">status (pending/approved/rejected)</text>
    <text x="10" y="110" class="attr">admin_note</text>
    <text x="10" y="130" class="attr">created_at, processed_at</text>
  </g>

  <!-- ==================== EMAIL_VERIFICATIONS ==================== -->
  <g transform="translate(530, 680)">
    <rect class="entity" x="0" y="0" width="200" height="140" rx="5"/>
    <rect class="entity-header" x="0" y="0" width="200" height="30" rx="5"/>
    <rect class="entity-header" x="0" y="20" width="200" height="10"/>
    <text x="100" y="20" text-anchor="middle" class="entity-title">EMAIL_VERIFICATIONS</text>
    <text x="10" y="50" class="pk">🔑 id (PK)</text>
    <text x="10" y="70" class="fk">🔗 user_id (FK)</text>
    <text x="10" y="90" class="attr">token (UNIQUE)</text>
    <text x="10" y="110" class="attr">expires_at</text>
    <text x="10" y="130" class="attr">used_at, created_at</text>
  </g>

  <!-- ==================== PASSWORD_RESETS ==================== -->
  <g transform="translate(780, 680)">
    <rect class="entity" x="0" y="0" width="200" height="140" rx="5"/>
    <rect class="entity-header" x="0" y="0" width="200" height="30" rx="5"/>
    <rect class="entity-header" x="0" y="20" width="200" height="10"/>
    <text x="100" y="20" text-anchor="middle" class="entity-title">PASSWORD_RESETS</text>
    <text x="10" y="50" class="pk">🔑 id (PK)</text>
    <text x="10" y="70" class="fk">🔗 user_id (FK)</text>
    <text x="10" y="90" class="attr">token (UNIQUE)</text>
    <text x="10" y="110" class="attr">expires_at</text>
    <text x="10" y="130" class="attr">used_at, created_at</text>
  </g>

  <!-- ==================== NOTIFICATIONS ==================== -->
  <g transform="translate(1050, 700)">
    <rect class="entity" x="0" y="0" width="200" height="160" rx="5"/>
    <rect class="entity-header" x="0" y="0" width="200" height="30" rx="5"/>
    <rect class="entity-header" x="0" y="20" width="200" height="10"/>
    <text x="100" y="20" text-anchor="middle" class="entity-title">NOTIFICATIONS</text>
    <text x="10" y="50" class="pk">🔑 id (PK)</text>
    <text x="10" y="70" class="fk">🔗 user_id (FK)</text>
    <text x="10" y="90" class="attr">type</text>
    <text x="10" y="110" class="attr">title, message</text>
    <text x="10" y="130" class="attr">link</text>
    <text x="10" y="150" class="attr">is_read, created_at</text>
  </g>

  <!-- ==================== KNOWLEDGE_POSTS ==================== -->
  <g transform="translate(1300, 660)">
    <rect class="entity" x="0" y="0" width="200" height="180" rx="5"/>
    <rect class="entity-header" x="0" y="0" width="200" height="30" rx="5"/>
    <rect class="entity-header" x="0" y="20" width="200" height="10"/>
    <text x="100" y="20" text-anchor="middle" class="entity-title">KNOWLEDGE_POSTS</text>
    <text x="10" y="50" class="pk">🔑 id (PK)</text>
    <text x="10" y="70" class="fk">🔗 user_id (FK)</text>
    <text x="10" y="90" class="attr">title, content</text>
    <text x="10" y="110" class="attr">category</text>
    <text x="10" y="130" class="attr">tags</text>
    <text x="10" y="150" class="attr">is_featured, view_count</text>
    <text x="10" y="170" class="attr">created_at, updated_at</text>
  </g>

  <!-- ==================== USER_FEEDBACK ==================== -->
  <g transform="translate(50, 900)">
    <rect class="entity" x="0" y="0" width="200" height="180" rx="5"/>
    <rect class="entity-header" x="0" y="0" width="200" height="30" rx="5"/>
    <rect class="entity-header" x="0" y="20" width="200" height="10"/>
    <text x="100" y="20" text-anchor="middle" class="entity-title">USER_FEEDBACK</text>
    <text x="10" y="50" class="pk">🔑 id (PK)</text>
    <text x="10" y="70" class="fk">🔗 user_id (FK)</text>
    <text x="10" y="90" class="attr">feedback_type</text>
    <text x="10" y="110" class="attr">subject, message</text>
    <text x="10" y="130" class="attr">status</text>
    <text x="10" y="150" class="attr">admin_response</text>
    <text x="10" y="170" class="attr">created_at, updated_at</text>
  </g>

  <!-- ==================== FAQS ==================== -->
  <g transform="translate(300, 900)">
    <rect class="entity" x="0" y="0" width="180" height="160" rx="5"/>
    <rect class="entity-header" x="0" y="0" width="180" height="30" rx="5"/>
    <rect class="entity-header" x="0" y="20" width="180" height="10"/>
    <text x="90" y="20" text-anchor="middle" class="entity-title">FAQS</text>
    <text x="10" y="50" class="pk">🔑 id (PK)</text>
    <text x="10" y="70" class="attr">question</text>
    <text x="10" y="90" class="attr">answer</text>
    <text x="10" y="110" class="attr">category</text>
    <text x="10" y="130" class="attr">is_active, sort_order</text>
    <text x="10" y="150" class="attr">created_at, updated_at</text>
  </g>

  <!-- ==================== ACTIVITY_LOGS ==================== -->
  <g transform="translate(530, 900)">
    <rect class="entity" x="0" y="0" width="200" height="160" rx="5"/>
    <rect class="entity-header" x="0" y="0" width="200" height="30" rx="5"/>
    <rect class="entity-header" x="0" y="20" width="200" height="10"/>
    <text x="100" y="20" text-anchor="middle" class="entity-title">ACTIVITY_LOGS</text>
    <text x="10" y="50" class="pk">🔑 id (PK)</text>
    <text x="10" y="70" class="fk">🔗 user_id (FK, nullable)</text>
    <text x="10" y="90" class="attr">action</text>
    <text x="10" y="110" class="attr">description</text>
    <text x="10" y="130" class="attr">ip_address, user_agent</text>
    <text x="10" y="150" class="attr">created_at</text>
  </g>

  <!-- ==================== RELATIONSHIPS ==================== -->
  
  <!-- USERS -> POSTS (1:N) -->
  <path class="relation" d="M750,200 L230,200" marker-end="url(#many)"/>
  <text x="500" y="190" class="relation-label">1:N (user creates posts)</text>
  
  <!-- POSTS -> COMMENTS (1:N) -->
  <path class="relation" d="M140,300 L140,350" marker-end="url(#many)"/>
  <text x="145" y="330" class="relation-label">1:N</text>
  
  <!-- USERS -> COMMENTS (1:N) -->
  <path class="relation" d="M750,350 L230,400" marker-end="url(#many)"/>
  <text x="500" y="365" class="relation-label">1:N (user writes comments)</text>
  
  <!-- USERS -> FAVORITES (1:N) -->
  <path class="relation" d="M750,400 L230,580" marker-end="url(#many)"/>
  <text x="400" y="500" class="relation-label">1:N</text>
  
  <!-- POSTS -> FAVORITES (1:N) -->
  <path class="relation" d="M140,490 L140,540" marker-end="url(#many)"/>
  <text x="145" y="520" class="relation-label">1:N</text>
  
  <!-- USERS -> FRIENDSHIPS (1:N) -->
  <path class="relation" d="M950,170 L1050,170" marker-end="url(#many)"/>
  <text x="980" y="160" class="relation-label">1:N</text>
  
  <!-- USERS -> DIRECT_MESSAGES (1:N) -->
  <path class="relation" d="M950,150 L1300,150" marker-end="url(#many)"/>
  <text x="1100" y="140" class="relation-label">1:N (sender/receiver)</text>
  
  <!-- USERS -> CONVERSATIONS (1:N) -->
  <path class="relation" d="M950,300 L1300,350" marker-end="url(#many)"/>
  <text x="1100" y="315" class="relation-label">1:N</text>
  
  <!-- USERS -> MESSAGES (1:N) -->
  <path class="relation" d="M950,320 L1050,350" marker-end="url(#many)"/>
  <text x="980" y="330" class="relation-label">1:N</text>
  
  <!-- USERS -> APPOINTMENTS (1:N) -->
  <path class="relation" d="M950,400 L1050,520" marker-end="url(#many)"/>
  <text x="980" y="460" class="relation-label">1:N (patient/student)</text>
  
  <!-- USERS -> RATINGS (1:N) -->
  <path class="relation" d="M950,380 L1300,520" marker-end="url(#many)"/>
  <text x="1100" y="440" class="relation-label">1:N (rater/rated)</text>

  <!-- USERS -> REPORTS (1:N) -->
  <path class="relation" d="M750,380 L480,420" marker-end="url(#many)"/>
  <text x="600" y="390" class="relation-label">1:N</text>
  
  <!-- POSTS -> REPORTS (1:N) -->
  <path class="relation" d="M230,280 L280,380" marker-end="url(#many)"/>
  <text x="240" y="330" class="relation-label">1:N</text>
  
  <!-- USERS -> VERIFICATIONS (1:N) -->
  <path class="relation" d="M850,440 L630,480" marker-end="url(#many)"/>
  <text x="720" y="455" class="relation-label">1:N</text>
  
  <!-- USERS -> POSTING_REQUESTS (1:N) -->
  <path class="relation" d="M750,420 L480,620" marker-end="url(#many)"/>
  <text x="580" y="530" class="relation-label">1:N</text>
  
  <!-- USERS -> ACCOUNT_REQUESTS (1:N) -->
  <path class="relation" d="M750,430 L230,750" marker-end="url(#many)"/>
  <text x="400" y="600" class="relation-label">1:N</text>
  
  <!-- USERS -> EMAIL_VERIFICATIONS (1:N) -->
  <path class="relation" d="M850,440 L630,680" marker-end="url(#many)"/>
  <text x="720" y="570" class="relation-label">1:N</text>
  
  <!-- USERS -> PASSWORD_RESETS (1:N) -->
  <path class="relation" d="M880,440 L880,680" marker-end="url(#many)"/>
  <text x="885" y="570" class="relation-label">1:N</text>
  
  <!-- USERS -> NOTIFICATIONS (1:N) -->
  <path class="relation" d="M950,420 L1050,740" marker-end="url(#many)"/>
  <text x="980" y="580" class="relation-label">1:N</text>
  
  <!-- USERS -> KNOWLEDGE_POSTS (1:N) -->
  <path class="relation" d="M950,400 L1300,700" marker-end="url(#many)"/>
  <text x="1100" y="550" class="relation-label">1:N</text>
  
  <!-- USERS -> USER_FEEDBACK (1:N) -->
  <path class="relation" d="M750,440 L150,900" marker-end="url(#many)"/>
  <text x="400" y="680" class="relation-label">1:N</text>
  
  <!-- USERS -> ACTIVITY_LOGS (1:N) -->
  <path class="relation" d="M850,440 L630,900" marker-end="url(#many)"/>
  <text x="720" y="680" class="relation-label">1:N</text>

  <!-- ==================== LEGEND ==================== -->
  <g transform="translate(1300, 900)">
    <rect x="0" y="0" width="200" height="180" fill="#f5f5f5" stroke="#ccc" stroke-width="1" rx="5"/>
    <text x="100" y="25" text-anchor="middle" style="font-family: Arial; font-size: 14px; font-weight: bold; fill: #333;">CHÚ THÍCH</text>
    
    <text x="15" y="50" class="pk">🔑 Primary Key (PK)</text>
    <text x="15" y="75" class="fk">🔗 Foreign Key (FK)</text>
    <text x="15" y="100" class="attr">Thuộc tính thường</text>
    
    <line x1="15" y1="120" x2="80" y2="120" stroke="#666" stroke-width="1.5"/>
    <text x="90" y="125" style="font-family: Arial; font-size: 11px; fill: #666;">Quan hệ 1:N</text>
    
    <rect x="15" y="140" width="20" height="15" fill="#e3f2fd" stroke="#1976d2" stroke-width="1"/>
    <text x="45" y="152" style="font-family: Arial; font-size: 11px; fill: #666;">Entity (Thực thể)</text>
  </g>

  <!-- ==================== FOOTER ==================== -->
  <text x="900" y="1120" text-anchor="middle" style="font-family: Arial; font-size: 12px; fill: #999;">
    Tổng cộng: 20 bảng | Database: dacn1_db | Charset: utf8mb4
  </text>
  <text x="900" y="1140" text-anchor="middle" style="font-family: Arial; font-size: 11px; fill: #999;">
    Hệ thống kết nối sinh viên y khoa và bệnh nhân - Medical Student Connection Platform
  </text>

</svg>